:version 1.10
:name ASF
:units
  mass 1
  length 1
  angle deg
:documentation
  ASF file generated by Kaydara
:root
  axis xyz
  order  tx ty tz rx ry rz
  position 0 0 0
  orientation 0 0 0
:bonedata
  begin
    id 1
    name RightUpLegDummy
    direction -0.718183 -0.695806 0.00816078
    length 4.904
    axis 0 0 0 xyz
  end
  begin
    id 2
    name RightUpLeg
    direction 3.53989e-006 -0.995788 0.0916897
    length 17.4976
    axis -3.49089 -0.000906621 0.000287158 xyz
    dof rx ry rz
  end
  begin
    id 3
    name RightLeg
    direction 0.00371093 -0.995096 -0.0988418
    length 16.5821
    axis 3.68512 0.0193738 -0.131023 xyz
    dof rx ry rz
  end
  begin
    id 4
    name RightFoot
    direction 0.000791514 -0.46099 0.887405
    length 3.77069
    axis 4.84075e-005 -0.120479 -0.188788 xyz
    dof rx ry rz
  end
  begin
    id 5
    name RightToes
    direction 0.00124746 -0.014064 0.9999
    length 3.85082
    axis 0.00048216 0.542163 -0.142577 xyz
    dof rx ry rz
  end
  begin
    id 6
    name SpineDummy
    direction 8.36599e-015 1 5.97571e-016
    length 4.6813
    axis 0 0 0 xyz
  end
  begin
    id 7
    name Spine
    direction -4.63632e-008 0.999988 0.00495137
    length 10.1015
    axis -0.00138897 0.000121419 3.25764e-006 xyz
    dof rx ry rz
  end
  begin
    id 8
    name Spine1
    direction 0 0 0
    length 0
    axis -0.00138896 0.000121452 2.39764e-006 xyz
    dof rx ry rz
  end
  begin
    id 9
    name HEadDummy
    direction -3.91456e-008 0.999999 0.00127422
    length 3.43865
    axis -0.00138896 0.000121452 2.39764e-006 xyz
  end
  begin
    id 10
    name HEad
    direction -0.0222688 0.980941 0.193023
    length 5.12695
    axis -0.00138895 0.000121452 2.39764e-006 xyz
    dof rx ry rz
  end
  begin
    id 11
    name LeftShoulder1Dummy
    direction 0.998891 -0.0402508 -0.0244456
    length 3.5433
    axis -0.00138896 0.000121452 2.39764e-006 xyz
  end
  begin
    id 12
    name LeftShoulder1
    direction 0.99951 -0.000327743 0.0313091
    length 4.05031
    axis -0.00138896 0.000121452 2.39764e-006 xyz
    dof rx ry rz
  end
  begin
    id 13
    name LeftArm
    direction 0.998561 -0.00100054 -0.0536182
    length 10.3537
    axis -23.1894 0.134784 0.96751 xyz
    dof rx ry rz
  end
  begin
    id 14
    name LeftForeArm
    direction 0.998903 0.00866434 0.046012
    length 8.70632
    axis -9.91835 -0.06569 -0.177792 xyz
    dof rx ry rz
  end
  begin
    id 15
    name LeftHand
    direction 0.992938 -0.0411636 0.11126
    length 5.32135
    axis -0.00960227 -0.00340091 0.185174 xyz
    dof rx ry rz
  end
  begin
    id 16
    name RightShoulderDummy
    direction -0.998891 -0.0402509 -0.0244414
    length 3.5433
    axis -0.00138896 0.000121452 2.39764e-006 xyz
  end
  begin
    id 17
    name RightShoulder
    direction -0.99951 -0.000327827 0.0313133
    length 4.05031
    axis 0.215806 0.000203644 -0.00680151 xyz
    dof rx ry rz
  end
  begin
    id 18
    name RightArm
    direction -0.998573 -0.000999583 -0.053403
    length 10.3947
    axis -23.2009 -0.134239 -0.9641 xyz
    dof rx ry rz
  end
  begin
    id 19
    name RightForeArm
    direction -0.998898 0.00868026 0.0461306
    length 8.68355
    axis -9.92322 0.0658061 0.178869 xyz
    dof rx ry rz
  end
  begin
    id 20
    name RightHand
    direction -0.992843 -0.0414603 0.112003
    length 5.28593
    axis -0.00960634 0.00330671 -0.185226 xyz
    dof rx ry rz
  end
  begin
    id 21
    name LeftUpLegDummy
    direction 0.718183 -0.695806 0.00816078
    length 4.904
    axis 0 0 0 xyz
  end
  begin
    id 22
    name LeftUpLeg
    direction -6.8115e-006 -0.995793 0.0916336
    length 17.4976
    axis -3.48766 0.00143441 -0.000523914 xyz
    dof rx ry rz
  end
  begin
    id 23
    name LeftLeg
    direction -0.00601357 -0.995091 -0.0987824
    length 16.5821
    axis 3.68177 -0.00654038 -0.00028478 xyz
    dof rx ry rz
  end
  begin
    id 24
    name LeftFoot
    direction -0.00417578 -0.460984 0.887399
    length 3.77069
    axis 1.87232e-006 4.66002e-005 -8.1837e-006 xyz
    dof rx ry rz
  end
  begin
    id 25
    name LeftToes
    direction 0.00818058 -0.00485161 0.999955
    length 3.85048
    axis 1.06246e-005 4.65855e-005 -8.18502e-006 xyz
    dof rx ry rz
  end
:hierarchy
  begin
    root RightUpLegDummy SpineDummy LeftUpLegDummy
    RightUpLegDummy RightUpLeg
    RightUpLeg RightLeg
    RightLeg RightFoot
    RightFoot RightToes
    SpineDummy Spine
    Spine Spine1
    Spine1 HEadDummy LeftShoulder1Dummy RightShoulderDummy
    HEadDummy HEad
    LeftShoulder1Dummy LeftShoulder1
    LeftShoulder1 LeftArm
    LeftArm LeftForeArm
    LeftForeArm LeftHand
    RightShoulderDummy RightShoulder
    RightShoulder RightArm
    RightArm RightForeArm
    RightForeArm RightHand
    LeftUpLegDummy LeftUpLeg
    LeftUpLeg LeftLeg
    LeftLeg LeftFoot
    LeftFoot LeftToes
  end

:SAMPLES-PER-SECOND 24
:FULLY-SPECIFIED
:DEGREES
1
root  1.09674 38.8788 24.2812 3.72806 -55.0026 1.96645
RightUpLeg  -1.43822 -2.09403 -5.30837
RightLeg  22.1659 -11.6295 -5.36132
RightFoot  -19.8485 0.29024 5.67074
RightToes  -2.08645e-008 3.77894e-005 6.81332e-007
Spine  -0.761655 1.19194 4.5609
Spine1  7.2507 1.57924 -2.18985
HEad  -39.5815 37.845 -25.6674
LeftShoulder1  6.98521 -12.7379 -36.9405
LeftArm  -2.83739 18.9944 -26.8601
LeftForeArm  149.834 -76.9435 -134.657
LeftHand  -0.401115 -3.22956 5.64549
RightShoulder  3.91736 6.65608 32.6721
RightArm  10.6598 -19.8292 27.571
RightForeArm  91.3447 80.2336 81.809
RightHand  -0.483446 7.15714 -4.82282
LeftUpLeg  -28.4359 22.8794 6.60594
LeftLeg  38.8629 9.28753 8.30928
LeftFoot  6.7909 1.51209 -9.73062
LeftToes  1.24767e-006 1.47042e-008 1.32732e-009
2
root  0.874897 39.4458 24.9976 5.29292 -52.4291 1.66031
RightUpLeg  0.331296 -3.66331 -5.83988
RightLeg  17.9635 -11.3321 -4.34933
RightFoot  -15.7439 0.208203 8.18627
RightToes  -2.08645e-008 3.77894e-005 6.81332e-007
Spine  -2.89457 2.40414 5.27954
Spine1  6.52573 2.91884 -3.41098
HEad  -37.3942 36.3553 -24.7411
LeftShoulder1  6.8723 -12.6052 -36.6047
LeftArm  -1.82523 25.1959 -26.4295
LeftForeArm  154.599 -75.7432 -139.527
LeftHand  -0.314909 -3.53349 4.35284
RightShoulder  3.92462 6.63806 32.8126
RightArm  11.0932 -20.7691 27.604
RightForeArm  96.8856 80.3143 87.8453
RightHand  -0.612043 7.15302 -6.00615
LeftUpLeg  -30.5661 27.7428 2.9897
LeftLeg  33.3554 12.0306 8.74989
LeftFoot  5.27074 1.12175 -7.8958
LeftToes  1.24767e-006 1.47042e-008 1.32732e-009
3
root  0.749593 39.779 25.7861 7.14516 -49.7444 0.60675
RightUpLeg  0.985119 -6.87615 -6.24763
RightLeg  16.7132 -10.1921 -3.61605
RightFoot  -12.466 0.0206843 10.3796
RightToes  -2.08645e-008 3.77894e-005 6.81332e-007
Spine  -3.89829 3.57775 6.05488
Spine1  5.19488 4.07602 -4.10682
HEad  -35.7986 34.8451 -24.1447
LeftShoulder1  6.57777 -12.306 -35.5747
LeftArm  -1.60689 30.6616 -26.1852
LeftForeArm  154.975 -75.377 -140.629
LeftHand  -0.245268 -3.57555 3.4331
RightShoulder  3.89897 6.62608 32.6049
RightArm  13.2745 -17.6693 26.8528
RightForeArm  87.6885 80.1282 78.1785
RightHand  -0.460667 7.63119 -4.46156
LeftUpLeg  -32.4087 30.6624 0.0492113
LeftLeg  25.3997 12.3467 6.71382
LeftFoot  3.25178 1.12157 -8.90274
LeftToes  1.24767e-006 1.47042e-008 1.32732e-009
4
root  0.701643 39.7089 26.5748 8.46161 -46.8576 -1.23773
RightUpLeg  2.29584 -10.3541 -6.06677
RightLeg  16.9913 -9.81236 -3.29242
RightFoot  -11.4794 -0.0669686 10.6948
RightToes  -2.08645e-008 3.77894e-005 6.81332e-007
Spine  -3.21774 4.67906 7.51252
Spine1  3.8386 5.22386 -4.95488
HEad  -35.4806 32.4211 -23.6118
LeftShoulder1  6.32838 -12.1031 -34.5384
LeftArm  -2.12761 33.4136 -24.7661
LeftForeArm  150.258 -75.7791 -138.546
LeftHand  -0.252566 -3.2221 3.64867
RightShoulder  3.86246 6.65648 32.1284
RightArm  15.179 -11.2832 26.7275
RightForeArm  68.8574 78.812 59.6653
RightHand  -0.426751 7.50173 -4.20357
LeftUpLeg  -32.7545 30.154 0.0632729
LeftLeg  17.2801 11.5974 3.78944
LeftFoot  2.48487 1.20479 -10.0396
LeftToes  1.24767e-006 1.47042e-008 1.32732e-009
5
root  0.698348 39.2579 27.3596 9.24783 -44.6174 -2.93546
RightUpLeg  4.19011 -11.7891 -5.73062
RightLeg  17.2093 -9.95707 -3.26914
RightFoot  -13.2401 0.121283 12.5564
RightToes  -2.08645e-008 3.77894e-005 6.81332e-007
Spine  -1.69885 5.80289 9.58167
Spine1  2.69323 6.71755 -7.27358
HEad  -35.8461 29.5875 -23.0751
LeftShoulder1  6.20643 -12.0074 -34.0073
LeftArm  -3.7357 33.4994 -21.6079
LeftForeArm  144.685 -76.1925 -136.094
LeftHand  -0.301141 -3.0376 4.38125
RightShoulder  3.76077 6.6107 31.2881
RightArm  16.465 -2.20026 28.2994
RightForeArm  52.6236 76.0387 43.4285
RightHand  -0.624536 7.667 -5.89174
LeftUpLeg  -31.0117 22.5982 6.13445
LeftLeg  10.288 18.7041 -0.0954631
LeftFoot  1.85429 1.15685 -10.0804
LeftToes  1.24767e-006 1.47042e-008 1.32732e-009
6
root  0.656834 38.6174 28.2816 10.0546 -42.5494 -4.24805
RightUpLeg  6.05801 -11.5334 -5.25888
RightLeg  17.3878 -12.0007 -3.98302
RightFoot  -15.4778 0.412301 14.2711
RightToes  -2.08645e-008 3.77894e-005 6.81332e-007
Spine  -1.15501 6.8384 12.1416
Spine1  2.4761 8.34238 -10.7827
HEad  -36.2449 26.8584 -22.425
LeftShoulder1  6.18485 -11.9713 -33.9623
LeftArm  -6.38353 31.6314 -18.1993
LeftForeArm  139.671 -76.8094 -132.807
LeftHand  -0.386317 -2.50063 5.8986
RightShoulder  3.61529 6.47428 30.3253
RightArm  17.0851 8.16419 31.6692
RightForeArm  44.2539 73.2118 34.3404
RightHand  -0.663086 7.65297 -6.25096
LeftUpLeg  -30.8802 16.8815 10.7472
LeftLeg  5.00202 28.9712 -3.07674
LeftFoot  0.0224111 1.00267 -10.0621
LeftToes  1.24767e-006 1.47042e-008 1.32732e-009
7
root  0.548578 37.9637 29.5486 10.5455 -39.3616 -5.26257
RightUpLeg  8.94887 -11.1491 -4.82637
RightLeg  17.0415 -15.3993 -4.81452
RightFoot  -16.7846 0.615703 15.1701
RightToes  -2.08645e-008 3.77894e-005 6.81332e-007
Spine  -1.52634 7.62853 14.4874
Spine1  2.43029 9.6297 -14.1383
HEad  -35.4151 24.2086 -20.9403
LeftShoulder1  6.2791 -12.049 -34.3634
LeftArm  -9.9205 29.0151 -16.2499
LeftForeArm  134.513 -77.7495 -127.615
LeftHand  -0.486369 -1.88682 7.93928
RightShoulder  3.57063 6.43828 30.0019
RightArm  16.6326 16.7717 35.1963
RightForeArm  41.7699 71.6225 30.5965
RightHand  -0.685719 7.61882 -6.46574
LeftUpLeg  -31.9342 15.2893 11.0161
LeftLeg  2.82439 39.7973 -4.08352
LeftFoot  -2.11125 0.634812 -7.68126
LeftToes  1.24767e-006 1.47042e-008 1.32732e-009
8
root  0.423107 37.5025 31.2367 10.5895 -35.7951 -5.48958
RightUpLeg  11.5307 -12.1989 -5.66138
RightLeg  18.0139 -15.6009 -5.43218
RightFoot  -16.6309 0.905029 21.8941
RightToes  -2.08645e-008 3.77894e-005 6.81332e-007
Spine  -3.42348 8.89966 15.2131
Spine1  3.15359 11.2915 -16.595
HEad  -32.7758 21.3758 -17.9364
LeftShoulder1  6.4098 -12.1627 -34.8971
LeftArm  -13.8351 27.1744 -16.8388
LeftForeArm  130.39 -78.3739 -123.348
LeftHand  -0.54099 -1.8983 8.80421
RightShoulder  3.61118 6.53971 30.0427
RightArm  14.6121 21.0048 37.708
RightForeArm  42.5019 71.1389 29.3465
RightHand  -0.690465 7.81156 -6.42664
LeftUpLeg  -33.2579 15.0696 8.69523
LeftLeg  4.9957 46.9749 -2.40087
LeftFoot  -0.566808 0.162547 -1.84747
LeftToes  1.24767e-006 1.47042e-008 1.32732e-009
9
root  0.266586 37.3981 33.2989 10.1434 -31.4854 -5.04869
RightUpLeg  10.0104 -13.4864 -7.14462
RightLeg  27.8594 -17.42 -9.99974
RightFoot  -9.94268 -0.517138 27.7248
RightToes  -2.08645e-008 3.77894e-005 6.81332e-007
Spine  -5.86348 10.2453 13.2045
Spine1  2.95863 12.6371 -16.8069
HEad  -29.4739 17.8503 -13.4123
LeftShoulder1  6.46112 -12.2037 -35.1134
LeftArm  -15.7956 26.7597 -19.1638
LeftForeArm  130.275 -78.2929 -123.738
LeftHand  -0.543734 -1.61241 9.18964
RightShoulder  3.65158 6.60657 30.2072
RightArm  11.7337 20.0909 38.0519
RightForeArm  44.8951 71.6407 30.0072
RightHand  -0.524232 8.04509 -4.88913
LeftUpLeg  -36.9444 22.1807 -0.32352
LeftLeg  11.7305 35.0712 2.64583
LeftFoot  3.27679 -0.514229 3.78731
LeftToes  1.24767e-006 1.47042e-008 1.32732e-009
10
root  0.0985521 37.4199 35.3854 7.37552 -24.2262 -3.96402
RightUpLeg  5.11969 -14.2787 -8.13362
RightLeg  45.6512 -17.532 -18.5386
RightFoot  6.1525 -2.7103 17.7625
RightToes  -2.08645e-008 3.77894e-005 6.81332e-007
Spine  -6.67231 9.58224 7.90346
Spine1  2.41959 11.8681 -13.9941
HEad  -27.093 13.6194 -8.64705
LeftShoulder1  6.47866 -12.2453 -35.1157
LeftArm  -15.5479 25.5184 -21.4394
LeftForeArm  130.02 -78.3401 -123.41
LeftHand  -0.595114 -1.23309 10.5831
RightShoulder  3.67526 6.59832 30.4758
RightArm  9.39896 16.9545 36.0934
RightForeArm  44.4401 71.2105 29.1259
RightHand  -0.557151 7.7856 -5.2651
LeftUpLeg  -39.706 29.1108 -10.9442
LeftLeg  17.9042 15.3788 5.78955
LeftFoot  3.45934 -0.948646 7.13151
LeftToes  1.24767e-006 1.47042e-008 1.32732e-009
11
root  -0.0265684 37.3377 37.0316 3.81282 -15.5608 -3.65779
RightUpLeg  -1.70743 -13.6582 -6.55195
RightLeg  60.5556 -9.75476 -18.3538
RightFoot  15.3694 -1.02509 4.4039
RightToes  -2.08645e-008 3.77894e-005 6.81332e-007
Spine  -6.89368 7.71688 1.22065
Spine1  4.39302 10.0231 -9.80542
HEad  -24.4219 9.48727 -4.08256
LeftShoulder1  6.57533 -12.3547 -35.4348
LeftArm  -14.6251 22.0116 -22.7875
LeftForeArm  126.124 -78.9603 -118.492
LeftHand  -0.657709 -1.50335 11.2444
RightShoulder  3.70155 6.55929 30.8845
RightArm  7.61872 13.1511 32.737
RightForeArm  39.0916 67.3336 23.3757
RightHand  -0.6261 7.52364 -5.97445
LeftUpLeg  -35.5991 24.1237 -9.51397
LeftLeg  23.6217 12.2132 6.1273
LeftFoot  0.614001 -0.92888 8.80533
LeftToes  1.24767e-006 1.47042e-008 1.32732e-009
12
root  -0.125508 37.4742 38.4713 0.500107 -6.40559 -5.08302
RightUpLeg  -10.2032 -14.0821 -2.94821
RightLeg  72.446 -3.60516 -13.7041
RightFoot  8.0178 0.0220436 0.261432
RightToes  -2.08645e-008 3.77894e-005 6.81332e-007
Spine  -6.30557 5.18021 -4.58164
Spine1  6.37549 7.15225 -5.57107
HEad  -20.908 5.84519 0.841016
LeftShoulder1  6.71262 -12.4635 -35.9993
LeftArm  -13.2119 17.0009 -23.3991
LeftForeArm  120.279 -79.6393 -111.272
LeftHand  -0.634658 -1.85819 10.3455
RightShoulder  3.83554 6.62047 31.9964
RightArm  5.8454 7.92026 28.8833
RightForeArm  32.8831 59.6369 16.3215
RightHand  -0.773172 7.91802 -7.08903
LeftUpLeg  -30.1643 16.9175 -6.42627
LeftLeg  26.4374 11.0836 6.27703
LeftFoot  -1.11425 -0.832898 9.35979
LeftToes  1.24767e-006 1.47042e-008 1.32732e-009
